<svg width="1440" height="37" viewBox="0 0 1440 37" fill="none" xmlns="http://www.w3.org/2000/svg">
<path fill-rule="evenodd" clip-rule="evenodd" d="M1440 19.9517V0H0V6.34591C21.6504 3.983 43.2263 2.34202 64.4894 2.39563C102.431 2.49127 141.923 8.69004 181.11 14.8409L181.11 14.8409L181.11 14.841C232.499 22.9071 283.363 30.8908 329.516 24.9205C349.148 23.2579 369.128 20.5784 389.213 17.885C422.709 13.3929 456.494 8.86231 489.427 8.94537C522.877 9.02979 557.694 14.4979 592.242 19.9238L592.244 19.9241C610.458 22.7847 628.598 25.6336 646.423 27.6755C701.877 36.9617 762.316 28.8551 823.507 20.6478C866.41 14.8933 909.682 9.08936 951.864 9.1958C994.708 9.30389 1039.3 16.3088 1083.55 23.2596C1136.14 31.5194 1188.23 39.7028 1236.33 36.1458C1261.74 34.9216 1287.89 31.4155 1314.21 27.8854L1314.21 27.885C1347.71 23.3929 1381.49 18.8623 1414.43 18.9454C1422.87 18.9667 1431.41 19.3312 1440 19.9517Z" fill="#292929"/>
</svg>
