<svg width="1440" height="37" viewBox="0 0 1440 37" fill="none" xmlns="http://www.w3.org/2000/svg">
<path fill-rule="evenodd" clip-rule="evenodd" d="M-1.74423e-06 17.0485L0 37.0001L1440 37L1440 30.6541C1418.35 33.017 1396.77 34.658 1375.51 34.6044C1337.57 34.5087 1298.08 28.31 1258.89 22.1591L1258.89 22.1591L1258.89 22.159C1207.5 14.0929 1156.64 6.10923 1110.48 12.0795C1090.85 13.7422 1070.87 16.4217 1050.79 19.1151C1017.29 23.6071 983.506 28.1377 950.573 28.0547C917.123 27.9703 882.306 22.5021 847.758 17.0762L847.756 17.076C829.542 14.2153 811.402 11.3664 793.577 9.32452C738.123 0.0383914 677.684 8.14496 616.493 16.3523C573.59 22.1068 530.318 27.9107 488.136 27.8043C445.292 27.6962 400.697 20.6913 356.447 13.7404C303.864 5.48069 251.767 -2.70265 203.673 0.854356C178.259 2.07849 152.114 5.58464 125.79 9.11471L125.787 9.11516C92.2909 13.6072 58.5063 18.1378 25.573 18.0547C17.1271 18.0334 8.59399 17.6689 -1.74423e-06 17.0485Z" fill="#292929"/>
</svg>
